<svg width="427" height="415" viewBox="0 0 427 415" fill="none" xmlns="http://www.w3.org/2000/svg">
<path fill-rule="evenodd" clip-rule="evenodd" d="M12.0001 207.353C12.0296 233.473 17.0208 259.569 26.9495 284.202L45.4537 276.744C36.7767 255.237 32 231.737 32 207.121C32 104.29 115.362 20.9279 218.193 20.9279C282.374 20.9279 338.97 53.4002 372.448 102.812L389 91.6186C382.763 82.3949 375.827 73.7471 368.281 65.7361C365.63 62.9227 362.9 60.1838 360.096 57.523C334.436 33.1839 302.75 15.6731 267.942 7.01923C252.48 3.17518 236.744 1.1638 221.042 0.947137C220.094 0.934297 219.145 0.927856 218.193 0.927856C217.381 0.927856 216.569 0.932558 215.759 0.941936C183.066 1.32868 150.671 9.48903 121.361 25.0796C76.4066 48.9919 41.8898 88.6922 24.4586 136.534C16.1878 159.234 12.0411 183.006 12.0003 206.766C12.0001 206.885 12 207.003 12 207.121C12 207.199 12 207.276 12.0001 207.353Z" fill="#C2CECA"/>
<path d="M412.583 134.542C430.907 181.873 431.119 234.3 413.179 281.777C395.238 329.254 360.408 368.44 315.362 391.825C270.317 415.209 218.226 421.147 169.073 408.5C119.921 395.853 77.1649 365.511 49 323.289L66.1421 311.854C91.4905 349.853 129.971 377.161 174.208 388.544C218.445 399.926 265.327 394.582 305.868 373.536C346.409 352.49 377.757 317.223 393.903 274.493C410.049 231.764 409.858 184.579 393.367 141.982L412.583 134.542Z" fill="#C2CECA"/>
<path d="M16 329L124 192L171 273.5L240.5 108.5L308 273.5L410.5 99" stroke="#D7534A" stroke-width="10"/>
<circle cx="16" cy="329" r="14" fill="white" stroke="black" stroke-width="4"/>
<circle cx="410" cy="99" r="14" fill="white" stroke="black" stroke-width="4"/>
<circle cx="122" cy="188" r="14" fill="white" stroke="black" stroke-width="4"/>
<circle cx="172" cy="275" r="14" fill="white" stroke="black" stroke-width="4"/>
<circle cx="238" cy="107" r="14" fill="white" stroke="black" stroke-width="4"/>
<circle cx="309" cy="275" r="14" fill="white" stroke="black" stroke-width="4"/>
</svg>
